<?xml version="1.0" encoding="utf-8"?>
<svg width="20px" height="20px" viewBox="0 0 20 20" version="1.1" xmlns:xlink="http://www.w3.org/1999/xlink" xmlns="http://www.w3.org/2000/svg">
  <path d="M10 0C4.47656 0 0 4.47656 0 10C0 15.5234 4.47656 20 10 20C15.5234 20 20 15.5234 20 10C20 4.47656 15.5234 0 10 0L10 0ZM10 2C14.4102 2 18 5.58984 18 10C18 10.4688 17.9531 10.9297 17.875 11.375C17.6289 11.3203 17.2656 11.2539 16.8438 11.25C16.5312 11.2461 16.1406 11.2969 15.8125 11.3438C15.9258 10.9961 16 10.6133 16 10.2188C16 9.25781 15.5312 8.36328 14.7812 7.625C14.9883 6.85547 15.1914 5.53516 14.6562 5C13.0742 5 12.1992 6.12891 12.1562 6.1875C11.668 6.07031 11.1641 6 10.625 6C9.93359 6 9.27344 6.125 8.65625 6.3125L8.84375 6.15625C8.84375 6.15625 7.96484 4.9375 6.34375 4.9375C5.77734 5.50781 6.03516 6.95313 6.25 7.6875C5.48438 8.41797 5 9.28125 5 10.2188C5 10.5469 5.07812 10.8594 5.15625 11.1562C4.87891 11.125 3.87891 11.0312 3.46875 11.0312C3.10547 11.0312 2.54297 11.1172 2.09375 11.2188C2.03125 10.8203 2 10.4141 2 10C2 5.58984 5.58984 2 10 2L10 2ZM3.46875 11.2812C3.86328 11.2812 5.0625 11.5312 5.21875 11.559C5.23828 11.6563 5.25781 11.7465 5.28125 11.8368C4.85156 11.7674 4.01953 11.6632 3.46875 11.7812C3.10156 11.8576 2.63281 12.0938 2.21875 12.2812C2.1875 12.059 2.14844 11.8438 2.125 11.6146C2.5625 11.4479 3.13672 11.2812 3.46875 11.2812L3.46875 11.2812ZM16.8438 11.5004C17.2422 11.5129 17.6055 11.7253 17.8438 11.9002C17.832 12.1125 17.7969 12.2874 17.7812 12.4998C17.5273 12.3124 17.1094 12.0376 16.625 12.0001C16.3906 11.9876 16.0156 12.0251 15.6875 12.1C15.7031 12.0001 15.707 11.9002 15.7188 11.8002C16.0586 11.6503 16.4922 11.4879 16.8438 11.5004L16.8438 11.5004ZM4.09375 11.7814C4.65625 11.7853 5.18359 11.8243 5.40625 11.8439C5.92969 12.8204 6.98828 13.5431 8.625 13.8439C8.22266 14.0665 7.86328 14.379 7.59375 14.7501C7.35938 14.7696 7.11328 14.7814 6.875 14.7814C6.17969 14.7814 5.74609 14.1603 5.375 13.6251C5 13.09 4.53906 13.0314 4.28125 13.0001C4.01953 12.9689 3.92969 13.1173 4.0625 13.2189C4.82422 13.8048 5.09766 14.5001 5.40625 15.1251C5.68359 15.6876 6.26562 16.0001 6.90625 16.0001L7.03125 16.0001C7.01172 16.1095 7 16.2111 7 16.3126L7 17.4064C4.69141 16.4728 2.93359 14.5001 2.28125 12.0626C2.69141 11.9611 3.15234 11.8556 3.5 11.8126C3.66016 11.7931 3.86328 11.7775 4.09375 11.7814L4.09375 11.7814ZM16.625 11.9062C17.0742 11.9179 17.4727 12.0038 17.7188 12.0624C17.168 14.1327 15.8086 15.8554 14 16.9062L14 16.3124C14 15.4609 13.3281 14.3671 12.375 13.8437C13.957 13.5546 14.9883 12.8632 15.5312 11.9374C15.9102 11.9101 16.3555 11.8984 16.625 11.9062L16.625 11.9062ZM10.5 16C10.7734 16 11 16.2266 11 16.5L11 17.9375C10.6719 17.9805 10.3398 18 10 18L10 16.5C10 16.2266 10.2266 16 10.5 16L10.5 16ZM8.5 17C8.77344 17 9 17.2417 9 17.5333L9 18C8.66406 17.9542 8.32422 17.8875 8 17.8L8 17.5333C8 17.2417 8.22656 17 8.5 17L8.5 17ZM12.5 17C12.7422 17 12.9531 17.2344 13 17.5417C12.6758 17.7188 12.3438 17.8802 12 18L12 17.6667C12 17.3021 12.2266 17 12.5 17L12.5 17Z" id="Shape" fill="#135b72" fill-rule="evenodd" stroke="none" />
</svg>