<?xml version="1.0" encoding="utf-8"?>
<svg width="22px" height="17px" viewBox="0 0 22 17" version="1.1" xmlns:xlink="http://www.w3.org/1999/xlink" xmlns="http://www.w3.org/2000/svg">
  <defs>
    <linearGradient x1="0" y1="0" x2="1" y2="1" id="gradient_1">
      <stop offset="0" stop-color="#20D4B4" />
      <stop offset="1" stop-color="#0083E1" />
    </linearGradient>
  </defs>
  <path d="M19.952 5.60654C18.048 4.09324 15.036 3.83723 14.908 3.82636C14.707 3.80956 14.516 3.92224 14.434 4.10411C14.428 4.11597 14.362 4.26523 14.289 4.49751C15.548 4.70706 17.095 5.13011 18.495 5.98906C18.719 6.12646 18.788 6.41805 18.649 6.64045C18.559 6.78476 18.402 6.86383 18.242 6.86383C18.156 6.86383 18.069 6.8411 17.99 6.79267C15.584 5.31791 12.578 5.24378 12 5.24378C11.422 5.24378 8.415 5.31791 6.011 6.79267C5.786 6.93105 5.492 6.86186 5.352 6.64045C5.212 6.41805 5.282 6.12745 5.506 5.98907C6.906 5.1311 8.452 4.70706 9.712 4.49751C9.638 4.26424 9.572 4.11597 9.567 4.10411C9.484 3.92224 9.294 3.80758 9.092 3.82735C8.965 3.83723 5.953 4.09324 4.023 5.62828C3.015 6.54852 1 11.9335 1 16.5891C1 16.6711 1.022 16.7522 1.063 16.8233C2.454 19.2381 6.248 19.8707 7.113 19.8984C7.118 19.8984 7.123 19.8984 7.128 19.8984C7.281 19.8984 7.425 19.8262 7.515 19.7037L8.39 18.5156C6.031 17.9126 4.826 16.8896 4.756 16.8293C4.558 16.6563 4.539 16.3578 4.714 16.1621C4.889 15.9664 5.19 15.9476 5.388 16.1196C5.417 16.1453 7.636 18.0065 12 18.0065C16.372 18.0065 18.591 16.1374 18.613 16.1186C18.811 15.9486 19.113 15.9664 19.287 16.1631C19.461 16.3588 19.442 16.6563 19.245 16.8283C19.175 16.8896 17.97 17.9116 15.611 18.5146L16.486 19.7027C16.576 19.8252 16.72 19.8974 16.873 19.8974C16.878 19.8974 16.883 19.8974 16.888 19.8974C17.753 19.8707 21.547 19.2381 22.938 16.8224C22.978 16.7512 23 16.6711 23 16.5891C23 11.9335 20.985 6.54852 19.952 5.60654L19.952 5.60654ZM8.89098 14.698C7.96698 14.698 7.21698 13.8509 7.21698 12.8071C7.21698 11.7634 7.96598 10.9163 8.89098 10.9163C9.81598 10.9163 10.565 11.7634 10.565 12.8071C10.565 13.8509 9.81598 14.698 8.89098 14.698L8.89098 14.698ZM15.109 14.698C14.185 14.698 13.435 13.8509 13.435 12.8071C13.435 11.7634 14.184 10.9163 15.109 10.9163C16.033 10.9163 16.783 11.7634 16.783 12.8071C16.783 13.8509 16.033 14.698 15.109 14.698L15.109 14.698Z" id="Shape" fill="url(#gradient_1)" fill-rule="evenodd" stroke="none" />
</svg>