<?xml version="1.0" encoding="utf-8"?>
<svg width="20px" height="20px" viewBox="0 0 20 20" version="1.1" xmlns:xlink="http://www.w3.org/1999/xlink" xmlns="http://www.w3.org/2000/svg">
  <defs>
    <filter id="filter_1">
      <feColorMatrix in="SourceGraphic" type="matrix" values="0 0 0 0 1 0 0 0 0 1 0 0 0 0 1 0 0 0 1 0" />
    </filter>
    <path d="M0 0L20 0L20 20L0 20L0 0Z" id="path_1" />
    <clipPath id="mask_1">
      <use xlink:href="#path_1" />
    </clipPath>
  </defs>
  <g id="External-Link-icon" filter="url(#filter_1)">
    <path d="M0 0L20 0L20 20L0 20L0 0Z" id="Background" fill="none" fill-rule="evenodd" stroke="none" />
    <g clip-path="url(#mask_1)">
      <path d="M16.6504 2.4918C16.6193 2.49278 16.5883 2.4955 16.5576 2.49994L12.5 2.49994C12.1994 2.49569 11.9199 2.65359 11.7684 2.91317C11.6169 3.17275 11.6169 3.4938 11.7684 3.75338C11.9199 4.01296 12.1994 4.17086 12.5 4.16661L14.6549 4.16661L6.91077 11.9107C6.69308 12.1198 6.60538 12.4301 6.68152 12.7222C6.75765 13.0142 6.9857 13.2423 7.27773 13.3184C7.56976 13.3945 7.88014 13.3068 8.08915 13.0891L15.8333 5.34499L15.8333 7.49994C15.829 7.80047 15.9869 8.08001 16.2465 8.23151C16.5061 8.38302 16.8271 8.38302 17.0867 8.23152C17.3463 8.08001 17.5042 7.80047 17.5 7.49994L17.5 3.43907C17.5336 3.19623 17.4585 2.95091 17.2948 2.76841C17.1311 2.5859 16.8954 2.48473 16.6504 2.4918L16.6504 2.4918ZM4.16667 2.49984C3.25578 2.49984 2.5 3.25562 2.5 4.16651L2.5 15.8332C2.5 16.7441 3.25578 17.4998 4.16667 17.4998L15.8333 17.4998C16.7442 17.4998 17.5 16.7441 17.5 15.8332L17.5 10.8332C17.5042 10.5326 17.3464 10.2531 17.0868 10.1016C16.8272 9.9501 16.5061 9.95009 16.2466 10.1016C15.987 10.2531 15.8291 10.5326 15.8333 10.8332L15.8333 15.8332L4.16667 15.8332L4.16667 4.16651L9.16667 4.16651C9.4672 4.17076 9.74673 4.01286 9.89824 3.75328C10.0497 3.4937 10.0497 3.17265 9.89824 2.91307C9.74673 2.65349 9.4672 2.49559 9.16667 2.49984L4.16667 2.49984L4.16667 2.49984Z" id="Shape" fill="#FFFFFF" fill-rule="evenodd" stroke="none" />
    </g>
  </g>
</svg>